<?xml version="1.0" encoding="iso-8859-1"?>
<!-- Generator: Adobe Illustrator 19.0.0, SVG Export Plug-In . SVG Version: 6.00 Build 0)  -->
<svg version="1.1" id="Layer_1" xmlns="http://www.w3.org/2000/svg" xmlns:xlink="http://www.w3.org/1999/xlink" x="0px" y="0px"
	 viewBox="0 0 511.999 511.999" style="enable-background:new 0 0 511.999 511.999;" xml:space="preserve">
<path style="fill:#CFD8E2;" d="M240.591,217.399c-3.302,0-6.613-0.972-9.491-2.965L77.756,108.279
	c-4.072-2.818-6.679-7.293-7.124-12.217c-0.445-4.924,1.324-9.796,4.822-13.292l47.187-47.181
	c4.496-4.496,11.175-6.033,17.169-3.997l193.612,65.887c5.451,1.857,9.568,6.397,10.87,12.011c1.303,5.609-0.38,11.501-4.453,15.573
	l-87.456,87.45C249.159,215.738,244.891,217.399,240.591,217.399z"/>
<path style="fill:#BAC8D4;" d="M417.52,441.512c-0.499,0-0.999-0.022-1.499-0.066c-4.931-0.445-9.405-3.051-12.217-7.118
	L297.648,280.99c-4.583-6.63-3.779-15.59,1.923-21.291l87.445-87.456c4.061-4.078,9.97-5.762,15.573-4.453
	c5.615,1.309,10.154,5.419,12.011,10.87l65.887,193.612c2.053,6.016,0.499,12.673-3.997,17.169l-47.176,47.181
	C426.176,439.768,421.93,441.512,417.52,441.512z"/>
<path style="fill:#A7E2E2;" d="M4.964,459.933c-6.512-6.512-6.516-17.075,0-23.59l70.771-70.771c6.516-6.516,17.078-6.512,23.59,0
	c6.512,6.512,6.516,17.075,0,23.59l-70.771,70.771C22.039,466.448,11.476,466.445,4.964,459.933z"/>
<path style="fill:#8AC8C8;" d="M52.144,507.114c-6.512-6.512-6.516-17.075,0-23.59l70.771-70.771c6.516-6.516,17.078-6.512,23.59,0
	s6.516,17.075,0,23.59l-70.771,70.771C69.219,513.63,58.657,513.625,52.144,507.114z"/>
<path style="fill:#E2E7EC;" d="M279.085,387.432l-9.987-50.248l223.322-223.32c12.582-12.582,19.58-29.331,19.501-47.18
	c0.079-17.85-6.92-34.6-19.501-47.18s-29.331-19.581-47.18-19.502c-17.85-0.079-34.598,6.919-47.18,19.501L174.736,242.823
	l-50.248-9.987c-5.504-1.1-11.087,0.552-15.097,4.562l-47.18,47.18c-3.774,3.774-5.505,9.122-4.64,14.39
	c0.786,5.347,4.247,9.908,8.964,12.267l89.407,44.743l44.743,89.407c2.359,4.717,6.92,8.177,12.267,8.964
	c0.786,0.157,1.729,0.158,2.596,0.236c4.404,0,8.65-1.73,11.795-4.875l47.18-47.18C278.455,398.598,280.184,392.937,279.085,387.432
	z"/>
<path style="fill:#CCD5E0;" d="M274.523,402.529l-47.18,47.18c-3.146,3.146-7.391,4.876-11.794,4.875
	c-0.866-0.079-1.809-0.079-2.596-0.236c-5.347-0.786-9.908-4.247-12.267-8.964l-44.743-89.407L492.419,19.502
	c12.582,12.582,19.58,29.331,19.501,47.18c0.079,17.85-6.919,34.598-19.501,47.18L269.097,337.185l9.987,50.248
	C280.184,392.937,278.455,398.598,274.523,402.529z"/>
<g>
</g>
<g>
</g>
<g>
</g>
<g>
</g>
<g>
</g>
<g>
</g>
<g>
</g>
<g>
</g>
<g>
</g>
<g>
</g>
<g>
</g>
<g>
</g>
<g>
</g>
<g>
</g>
<g>
</g>
</svg>
